<?xml version="1.0" encoding="UTF-8"?>
<svg id="Layer_2" data-name="Layer 2" xmlns="http://www.w3.org/2000/svg" xmlns:xlink="http://www.w3.org/1999/xlink" viewBox="0 0 113.08 113.08">
  <defs>
    <style>
      .cls-1 {
        stroke: #000;
      }

      .cls-1, .cls-2, .cls-3 {
        fill: none;
      }

      .cls-1, .cls-3 {
        stroke-linecap: round;
        stroke-linejoin: round;
        stroke-width: .66px;
      }

      .cls-4 {
        fill: #fff;
      }

      .cls-5 {
        fill: url(#Blue);
      }

      .cls-6 {
        fill: #d46919;
      }

      .cls-7 {
        fill: #ef758d;
        stroke: #ef758d;
        stroke-miterlimit: 10;
      }

      .cls-8 {
        clip-path: url(#clippath-1);
      }

      .cls-9 {
        fill: #e0a78f;
      }

      .cls-10 {
        clip-path: url(#clippath);
      }

      .cls-11 {
        fill: #1e0b02;
      }

      .cls-3 {
        stroke: #b9635e;
      }
    </style>
    <linearGradient id="Blue" x1="0" y1="56.54" x2="113.08" y2="56.54" gradientTransform="translate(99.23 -11.07) rotate(77.27)" gradientUnits="userSpaceOnUse">
      <stop offset="0" stop-color="#ddeffc"/>
      <stop offset=".45" stop-color="#bbe0f8"/>
      <stop offset="1" stop-color="#a7ceef"/>
    </linearGradient>
    <clipPath id="clippath">
      <circle class="cls-5" cx="56.54" cy="56.54" r="56.54" transform="translate(-11.07 99.23) rotate(-77.27)"/>
    </clipPath>
    <clipPath id="clippath-1">
      <path class="cls-2" d="m98.7,90.44c-1.76-4.74-7.02-10.9-17.07-12.9l-.34.25c-12.5,9.09-29.31,8.67-41.91-.27l.63-.21c-10.84,1.72-16.44,8.2-18.27,13.13l-4.24,19.32h85.43l-4.23-19.32Z"/>
    </clipPath>
  </defs>
  <g id="OBJECTS">
    <g>
      <circle class="cls-5" cx="56.54" cy="56.54" r="56.54" transform="translate(-11.07 99.23) rotate(-77.27)"/>
      <g class="cls-10">
        <g>
          <path class="cls-6" d="m39.66,27.94s-2.55,14.57-20.08,25.15c-18.69,11.28-8.04,47.11,24.69,47.9,35.55.86,53.62-43.56,33.07-79.83l-37.68,6.78Z"/>
          <path class="cls-4" d="m98.7,90.3c-1.83-4.88-7.43-11.29-18.27-12.99l-20.21-3.97-20.21,3.97c-10.84,1.7-16.44,8.11-18.27,12.99l-4.23,19.12h18.54l1.35,1.55,22.5,4.43,23.13-5.97h19.9l-4.24-19.12Z"/>
          <path class="cls-9" d="m39.38,77.52l21.91-4.44,20.45,4.38-.45.33c-12.5,8.99-29.31,8.58-41.91-.26h0Z"/>
          <g>
            <g>
              <path class="cls-9" d="m49.29,45.1c.13,3.26-2.42,6.01-5.68,6.14-3.26.13-6.01-2.42-6.14-5.68-.13-3.26,2.42-6.01,5.68-6.14,3.26-.13,6.01,2.42,6.14,5.68Z"/>
              <path class="cls-3" d="m40.01,44.53s2.34-1.17,4.62,2.89"/>
            </g>
            <g>
              <path class="cls-9" d="m70.88,45.04c.03,3.27,2.71,5.89,5.98,5.85,3.27-.03,5.89-2.71,5.85-5.98-.03-3.27-2.71-5.89-5.98-5.85-3.27.03-5.89,2.71-5.85,5.98Z"/>
              <path class="cls-3" d="m80.12,44.02s-2.39-1.05-4.48,3.12"/>
            </g>
            <ellipse class="cls-6" cx="59.77" cy="30.77" rx="20.35" ry="18.99" transform="translate(-.31 .62) rotate(-.59)"/>
            <path class="cls-9" d="m65.92,56.9s-2.53,2.38-4.86,2.98c-2.33.6-4.62-1.14-4.65-1.16s-2.75-2.02-2.75-2.02l-.89,19.48.31.32c4.01,4.22,9.71,4.22,13.66,0l.58-.62-1.4-18.98Z"/>
            <path class="cls-11" d="m51.79,54.14s3.4,11.34,9.25,11.17c4.81-.14,6.04-10.76,6.04-10.76l-15.3-.41Z"/>
            <path class="cls-9" d="m75.94,33.93c.1,6.4-.77,11.93-1.66,15.87-.87,3.85-3.46,6.57-7.14,8.79l-.67.4c-3.89,2.34-8.96,2.48-12.99.34h0c-4.06-2.16-6.92-5.04-7.85-9.14-1.69-7.46-1.99-15.75-1.99-15.75,0,0-1.53-17.29,15.89-17.25,17.42.05,16.4,16.75,16.4,16.75Z"/>
            <g>
              <polyline class="cls-3" points="58.48 42.96 58.51 45.46 60.22 45.44"/>
              <path class="cls-6" d="m46.56,34.09l9.2-.93s-.85-2.38-4.57-1.95c-3.81.44-4.63,2.88-4.63,2.88Z"/>
              <path class="cls-6" d="m71.88,33.83l-9.22-.74s.8-2.39,4.53-2.05c3.81.36,4.69,2.78,4.69,2.78Z"/>
              <path class="cls-11" d="m53.77,39.62c0,.78-.62,1.42-1.4,1.42-.78,0-1.42-.62-1.42-1.4s.62-1.42,1.4-1.42c.78,0,1.42.62,1.42,1.4Z"/>
              <path class="cls-11" d="m67.6,39.47c0,.78-.62,1.42-1.4,1.42-.78,0-1.42-.62-1.42-1.4,0-.78.62-1.42,1.4-1.42s1.42.62,1.42,1.4Z"/>
              <path class="cls-1" d="m54.23,49.05s3.94,2.09,10.23-.11"/>
            </g>
            <path class="cls-6" d="m75.9,30s-25.63,1.23-24.7-13.82c0,0,22.28-6.56,24.7,13.82Z"/>
            <path class="cls-6" d="m43.22,30.34s8.97-3.86,8.87-13.09c0,0-9.22,1.16-8.87,13.09Z"/>
          </g>
          <g class="cls-8">
            <g>
              <line class="cls-7" x1="15.05" y1="79.66" x2="104.76" y2="79.66"/>
              <line class="cls-7" x1="15.05" y1="84.34" x2="104.76" y2="84.34"/>
              <line class="cls-7" x1="15.05" y1="89.03" x2="104.76" y2="89.03"/>
              <line class="cls-7" x1="15.05" y1="93.71" x2="104.76" y2="93.71"/>
              <line class="cls-7" x1="15.05" y1="98.39" x2="104.76" y2="98.39"/>
              <line class="cls-7" x1="15.05" y1="103.08" x2="104.76" y2="103.08"/>
              <line class="cls-7" x1="15.05" y1="107.76" x2="104.76" y2="107.76"/>
              <line class="cls-7" x1="15.05" y1="112.45" x2="104.76" y2="112.45"/>
            </g>
          </g>
        </g>
      </g>
    </g>
  </g>
</svg>