<?xml version="1.0" encoding="UTF-8"?>
<svg id="Layer_2" data-name="Layer 2" xmlns="http://www.w3.org/2000/svg" xmlns:xlink="http://www.w3.org/1999/xlink" viewBox="0 0 113.08 113.08">
  <defs>
    <style>
      .cls-1 {
        stroke: #c47268;
        stroke-width: .69px;
      }

      .cls-1, .cls-2 {
        stroke-linecap: round;
        stroke-linejoin: round;
      }

      .cls-1, .cls-2, .cls-3 {
        fill: none;
      }

      .cls-4, .cls-5 {
        fill: #fff;
      }

      .cls-2 {
        stroke: #1e0b02;
        stroke-width: .96px;
      }

      .cls-6 {
        fill: url(#Blue);
      }

      .cls-5 {
        opacity: .23;
      }

      .cls-3 {
        stroke: #fff;
        stroke-miterlimit: 10;
        stroke-width: .49px;
      }

      .cls-7 {
        clip-path: url(#clippath);
      }

      .cls-8 {
        fill: #1e0b02;
      }

      .cls-9 {
        fill: #d3445b;
      }

      .cls-10 {
        fill: #e8b499;
      }
    </style>
    <linearGradient id="Blue" x1="0" y1="56.54" x2="113.08" y2="56.54" gradientTransform="translate(98.96 -11.24) rotate(77.04)" gradientUnits="userSpaceOnUse">
      <stop offset="0" stop-color="#ddeffc"/>
      <stop offset=".45" stop-color="#bbe0f8"/>
      <stop offset="1" stop-color="#a7ceef"/>
    </linearGradient>
    <clipPath id="clippath">
      <circle class="cls-6" cx="56.54" cy="56.54" r="56.54" transform="translate(-11.24 98.96) rotate(-77.04)"/>
    </clipPath>
  </defs>
  <g id="OBJECTS">
    <g>
      <circle class="cls-6" cx="56.54" cy="56.54" r="56.54" transform="translate(-11.24 98.96) rotate(-77.04)"/>
      <g class="cls-7">
        <g>
          <path class="cls-9" d="m34.45,80.96l-2.4,30.66H12.59c2.03-4.76,4.41-10.49,6.6-16.11,4.93-12.7,14.29-14.4,15.19-14.54.05-.01.07-.01.07-.01Z"/>
          <path class="cls-9" d="m103.96,111.62h-19.99l-3.19-31.01s.02.01.03.01c.65.08,11.05,1.71,16.42,14.89,2.4,5.9,4.8,11.59,6.73,16.11Z"/>
          <g>
            <path class="cls-9" d="m85.99,111.62l-29.45,5.85-26.07-5.85.1-28.97c1.13-.7,2.47-1.25,3.81-1.68,3.21-1.02,6.35-1.31,6.35-1.31l17.48,1.76,17.48-1.76s2.37.22,5.09.95c0,0,.02.01.03.01,1.7.45,3.54,1.11,5.03,2.03l.15,28.97Z"/>
            <path class="cls-10" d="m34.45,80.96l20.6-5.41h7.1l18.63,5.07h0c-9.53,8.93-33.17,16.25-45.27.76l-1.06-.42Z"/>
          </g>
          <g>
            <path class="cls-8" d="m88.26,62.11c-.19-1.63-.07-3.3.34-4.86,2.08-7.97-.3-14.75-4.5-19.83-3.8-4.59-4.75-11.37-4.75-11.37h0c-2.79-9.19-12.24-15.57-20.84-15.57s-18.03,6.01-20.82,15.2h0s-1.26,7.28-4.77,11.74c-4.07,5.17-6.58,11.86-4.5,19.83.41,1.57.54,3.24.34,4.86-.14,1.2-.47,2.45-1.16,3.31h61.81c-.69-.86-1.01-2.11-1.16-3.31Z"/>
            <g>
              <path class="cls-10" d="m47.8,44.62c.09,3.34-2.54,6.12-5.88,6.22-3.34.09-6.12-2.54-6.22-5.88-.09-3.34,2.54-6.13,5.88-6.22,3.34-.09,6.12,2.54,6.22,5.88Z"/>
              <path class="cls-1" d="m38.32,43.94s2.41-1.17,4.7,3.01"/>
            </g>
            <g>
              <path class="cls-10" d="m69.9,44.79c0,3.34,2.71,6.05,6.05,6.05s6.05-2.71,6.05-6.05-2.71-6.05-6.05-6.05-6.05,2.71-6.05,6.05Z"/>
              <path class="cls-1" d="m79.36,43.84s-2.44-1.1-4.61,3.14"/>
            </g>
            <circle class="cls-8" cx="58.68" cy="33.27" r="19"/>
            <path class="cls-10" d="m64.69,56.87s-2.62,2.4-5.01,2.99c-2.39.59-4.71-1.22-4.74-1.24-.03-.02-2.79-2.09-2.79-2.09l-1.12,19.91.31.33c4.05,4.35,9.89,4.41,13.98.14l.6-.62-1.23-19.43Z"/>
            <path class="cls-8" d="m50.27,53.9s3.36,11.64,9.35,11.52c4.93-.09,6.3-10.94,6.3-10.94l-15.65-.58Z"/>
            <path class="cls-10" d="m75.18,33.48c.03,6.55-.91,12.2-1.87,16.21-.94,3.93-3.61,6.69-7.39,8.91l-.69.41c-4.01,2.36-9.2,2.44-13.29.21h0c-4.13-2.25-7.02-5.23-7.93-9.44-1.65-7.65-1.87-16.14-1.87-16.14,0,0-1.38-17.71,16.44-17.48,17.82.23,16.6,17.31,16.6,17.31Z"/>
            <g>
              <g>
                <polyline class="cls-1" points="57.23 43.17 57.23 45.77 58.98 45.77"/>
                <path d="m45.13,33.33l9.42-.85s-.84-2.44-4.65-2.05c-3.9.41-4.77,2.89-4.77,2.89Z"/>
                <path d="m71.03,33.33l-9.42-.85s.84-2.44,4.65-2.05c3.9.41,4.77,2.89,4.77,2.89Z"/>
                <path class="cls-4" d="m52.96,48.16h10.29s-.39,2.68-5.33,2.68c-4.05,0-4.96-2.68-4.96-2.68Z"/>
                <path class="cls-2" d="m53.44,39.68s-2.44-1.99-4.58,0"/>
                <path class="cls-2" d="m67.21,39.68s-1.91-2.04-4.46,0"/>
              </g>
              <g>
                <path class="cls-5" d="m48.87,33.17l6.91,9.38s-2.08,3.98-5.4,3.54l-6.97-9.15s1.88-4.02,5.46-3.77Z"/>
                <path class="cls-5" d="m65.86,33.17l6.91,9.38s-2.08,3.98-5.4,3.54l-6.97-9.15s1.88-4.02,5.46-3.77Z"/>
                <path class="cls-3" d="m56.33,39.68c0,3.73-3.02,6.75-6.75,6.75s-6.75-3.02-6.75-6.75,3.02-6.75,6.75-6.75,6.75,3.02,6.75,6.75Z"/>
                <path class="cls-3" d="m73.33,39.68c0,3.73-3.02,6.75-6.75,6.75s-6.75-3.02-6.75-6.75,3.02-6.75,6.75-6.75,6.75,3.02,6.75,6.75Z"/>
                <path class="cls-3" d="m56.33,39.68s1.93-.71,3.5,0"/>
              </g>
            </g>
            <path class="cls-8" d="m40.43,29.45s15.88-3.02,19.16-14.88c0,0-16.9-6-19.16,14.88Z"/>
            <path class="cls-8" d="m75.18,29.45s-15.88-3.02-19.16-14.88c0,0,16.9-6,19.16,14.88Z"/>
          </g>
        </g>
      </g>
    </g>
  </g>
</svg>