<svg enable-background="new 0 0 2048 2048" viewBox="0 0 2048 2048" xmlns="http://www.w3.org/2000/svg" xmlns:xlink="http://www.w3.org/1999/xlink"><linearGradient id="a" gradientUnits="userSpaceOnUse" x1="280.28" x2="1767.72" y1="1024" y2="1024"><stop offset="0" stop-color="#fedc52"/><stop offset=".9947" stop-color="#fcb117"/></linearGradient><circle cx="1024" cy="1024" fill="url(#a)" r="743.72"/><path d="m540.23 770.15c-2.07 0-4.16-.21-6.27-.66-16.21-3.44-26.55-19.38-23.11-35.58 21.98-103.42 83.1-188.9 176.75-247.22 76.03-47.35 171.5-74.41 262.28-74.41.78 0 1.54 0 2.31.01 16.57.08 29.93 13.58 29.85 30.15-.08 16.52-13.5 29.85-30 29.85-.05 0-.1 0-.16 0-.58 0-1.18 0-1.77 0-130.25 0-337.77 72.7-380.58 274.11-2.98 14.09-15.44 23.75-29.3 23.75z" fill="#fff" opacity=".81"/><ellipse cx="775.69" cy="837.74" fill="#542a19" rx="62.77" ry="88.74"/><ellipse cx="1272.31" cy="837.74" fill="#542a19" rx="62.77" ry="88.74"/><path d="m1025.84 1455.93c-86.13 0-170.06-23.07-242.72-66.71-71.45-42.91-129.29-103.93-167.27-176.47-5.12-9.79-1.34-21.87 8.44-27 9.79-5.12 21.87-1.34 27 8.44 71.61 136.76 215.13 221.72 374.55 221.72 158.56 0 300.64-84.9 370.8-221.58 5.04-9.83 17.1-13.7 26.93-8.66s13.7 17.1 8.66 26.93c-77.05 150.1-232.76 243.33-406.39 243.33z" fill="#542a1a"/></svg>