<?xml version="1.0" encoding="UTF-8"?>
<svg id="Layer_2" data-name="Layer 2" xmlns="http://www.w3.org/2000/svg" xmlns:xlink="http://www.w3.org/1999/xlink" viewBox="0 0 113.08 113.08">
  <defs>
    <style>
      .cls-1 {
        fill: #fff;
      }

      .cls-2 {
        fill: #c67d69;
      }

      .cls-3 {
        fill: url(#Blue);
      }

      .cls-4 {
        clip-path: url(#clippath);
      }

      .cls-5 {
        fill: #1e0b02;
      }

      .cls-6 {
        fill: none;
        stroke: #a8523f;
        stroke-linecap: round;
        stroke-linejoin: round;
        stroke-width: .75px;
      }
    </style>
    <linearGradient id="Blue" x1="0" y1="56.54" x2="113.08" y2="56.54" gradientTransform="translate(56.54 -23.42) rotate(45)" gradientUnits="userSpaceOnUse">
      <stop offset="0" stop-color="#ddeffc"/>
      <stop offset=".45" stop-color="#bbe0f8"/>
      <stop offset="1" stop-color="#a7ceef"/>
    </linearGradient>
    <clipPath id="clippath">
      <circle class="cls-3" cx="56.54" cy="56.54" r="56.54" transform="translate(-23.42 56.54) rotate(-45)"/>
    </clipPath>
  </defs>
  <g id="OBJECTS">
    <g>
      <circle class="cls-3" cx="56.54" cy="56.54" r="56.54" transform="translate(-23.42 56.54) rotate(-45)"/>
      <g class="cls-4">
        <g>
          <path class="cls-1" d="m111.98,116.08H2.89c5.03-22.58,18.53-27.09,18.53-27.09l26.02-12.17,9.86-.09h.27l9.87.09,26.02,12.17s13.49,4.51,18.52,27.09Z"/>
          <g>
            <path class="cls-5" d="m63.4,11.96s9.08-4.05,12.3,3.6c3.1,7.36-9.21,14.38-9.21,14.38l-3.09-17.99Z"/>
            <g>
              <path class="cls-2" d="m46.42,42.49c.1,3.4-2.58,6.24-5.98,6.33-3.4.1-6.24-2.58-6.33-5.98-.1-3.4,2.58-6.24,5.98-6.33s6.24,2.58,6.33,5.98Z"/>
              <path class="cls-6" d="m36.76,41.8s2.45-1.19,4.78,3.06"/>
            </g>
            <g>
              <circle class="cls-2" cx="75.07" cy="42.67" r="6.16"/>
              <path class="cls-6" d="m78.54,41.7s-2.48-1.12-4.7,3.2"/>
            </g>
            <path class="cls-2" d="m65.57,56.86s-3.47,2.45-6.64,3.06c-3.17.6-6.24-1.23-6.28-1.25s-3.7-2.13-3.7-2.13l-1.51,20.28.41.34c5.37,4.43,13.1,4.48,18.53.13l.79-.64-1.6-19.78Z"/>
            <path class="cls-5" d="m47.44,54.41s3.45,11.3,11.4,11.17c6.53-.1,7.58-11.17,7.58-11.17h-18.98Z"/>
            <path class="cls-2" d="m74.3,31.94c.04,6.96-.93,12.98-1.9,17.25-.95,4.18-3.67,7.11-7.53,9.48l-.7.43c-4.08,2.51-9.36,2.59-13.53.22h0c-4.2-2.39-7.15-5.56-8.08-10.04-1.68-8.14-1.91-17.17-1.91-17.17,0,0-2.37-18.84,15.78-18.59,18.14.25,17.86,18.42,17.86,18.42Z"/>
            <g>
              <circle class="cls-5" cx="49.65" cy="37.47" r="1.47"/>
              <circle class="cls-5" cx="64.06" cy="37.47" r="1.47"/>
              <polyline class="cls-6" points="55.52 39.61 55.52 43.66 58.14 43.66"/>
              <path d="m44.18,31.26l9.59-.86s-.86-2.49-4.74-2.08c-3.97.41-4.86,2.95-4.86,2.95Z"/>
              <path d="m68.91,31.26l-9.59-.86s.86-2.49,4.74-2.08c3.97.41,4.86,2.95,4.86,2.95Z"/>
              <path class="cls-1" d="m52.24,47.02h9.46s-.44,2.9-4.87,2.9-4.59-2.9-4.59-2.9Z"/>
            </g>
            <g>
              <path class="cls-5" d="m41.28,41.03s2.69-20.37,1.37-23.73c0,0-9.14,7.56-1.37,23.73Z"/>
              <path class="cls-5" d="m73.62,40.86s-3.02-19.46-2.18-25.05c0,0,8.82,7.82,2.18,25.05Z"/>
            </g>
            <path class="cls-5" d="m70.8,14.42l-8.37-1.27-.74-1.45-4.42.67-4.42-.67-.74,1.45-8.37,1.27-1.12,4.48.28,5.16s1.32-5.85,5.93-4.69c1.09.27,2.39.73,3.91,1.04,1.42.31,2.78.45,4.05.47.15,0,.31,0,.46,0,.15,0,.31,0,.46,0,1.28-.02,2.63-.16,4.05-.47,1.52-.31,2.85-.67,3.91-1.04,4.27-1.49,5.85,4.42,5.85,4.42l.36-4.89-1.12-4.48Z"/>
            <path class="cls-5" d="m70.63,19.51s-5.44,4.86-12.41,1.12c0,0-17.73,10.92-22.74-.97-4.17-9.91,13.15-23.37,31.02-8.21l4.13,8.05Z"/>
          </g>
          <path class="cls-2" d="m47.44,76.82l-5.81,2.67s-.06,9.75,15.73,9.24c16.2-.52,16.1-9.09,16.1-9.09l-6.29-2.99-19.73.17Z"/>
        </g>
      </g>
    </g>
  </g>
</svg>