<?xml version="1.0" encoding="UTF-8"?>
<svg id="Layer_2" data-name="Layer 2" xmlns="http://www.w3.org/2000/svg" xmlns:xlink="http://www.w3.org/1999/xlink" viewBox="0 0 113.08 113.08">
  <defs>
    <style>
      .cls-1 {
        stroke: #c47268;
        stroke-linecap: round;
        stroke-linejoin: round;
        stroke-width: .69px;
      }

      .cls-1, .cls-2 {
        fill: none;
      }

      .cls-3 {
        fill: #fff;
      }

      .cls-4 {
        fill: url(#Blue);
      }

      .cls-5 {
        clip-path: url(#clippath);
      }

      .cls-2 {
        stroke: #fff;
        stroke-miterlimit: 10;
        stroke-width: 1.94px;
      }

      .cls-6 {
        fill: #1e0b02;
      }

      .cls-7 {
        fill: #e8b499;
      }

      .cls-8 {
        fill: #ef758d;
      }
    </style>
    <linearGradient id="Blue" x1="0" y1="56.54" x2="113.08" y2="56.54" gradientTransform="translate(99.23 -11.07) rotate(77.27)" gradientUnits="userSpaceOnUse">
      <stop offset="0" stop-color="#ddeffc"/>
      <stop offset=".45" stop-color="#bbe0f8"/>
      <stop offset="1" stop-color="#a7ceef"/>
    </linearGradient>
    <clipPath id="clippath">
      <circle class="cls-4" cx="56.54" cy="56.54" r="56.54" transform="translate(-11.07 99.23) rotate(-77.27)"/>
    </clipPath>
  </defs>
  <g id="OBJECTS">
    <g>
      <circle class="cls-4" cx="56.54" cy="56.54" r="56.54" transform="translate(-11.07 99.23) rotate(-77.27)"/>
      <g class="cls-5">
        <g>
          <g>
            <path class="cls-6" d="m45.26,8.42s7.94-10.75,22.01-3.58c15.43,7.86,7.09,24.81,7.09,24.81l-33.15-6.28,4.05-14.95Z"/>
            <path class="cls-6" d="m38.63,29.73s-8.67-17.03,6.63-21.32l2.75,9.13-9.38,12.18Z"/>
            <g>
              <path class="cls-7" d="m45.98,37.59c.1,3.4-2.58,6.24-5.98,6.33-3.4.1-6.24-2.58-6.33-5.98-.1-3.4,2.58-6.24,5.98-6.33,3.4-.1,6.24,2.58,6.33,5.98Z"/>
              <path class="cls-1" d="m36.33,36.9s2.45-1.19,4.78,3.06"/>
            </g>
            <g>
              <path class="cls-7" d="m68.48,37.76c0,3.4,2.76,6.16,6.16,6.16s6.16-2.76,6.16-6.16-2.76-6.16-6.16-6.16-6.16,2.76-6.16,6.16Z"/>
              <path class="cls-1" d="m78.11,36.8s-2.48-1.12-4.7,3.2"/>
            </g>
            <path class="cls-7" d="m65.14,51.96s-3.47,2.45-6.64,3.06c-3.17.6-6.24-1.23-6.28-1.25-.04-.02-3.7-2.13-3.7-2.13l-1.51,20.28.41.34c5.37,4.43,13.1,4.48,18.53.13l.79-.64-1.6-19.78Z"/>
            <path class="cls-6" d="m47.01,49.5s3.45,11.3,11.4,11.17c6.53-.1,7.58-11.17,7.58-11.17h-18.98Z"/>
            <path class="cls-7" d="m73.87,27.04c.04,6.96-.93,12.98-1.9,17.25-.95,4.18-4.63,7.11-8.48,9.48l-.7.43c-4.08,2.51-7.45,2.59-11.62.22h0c-4.2-2.39-8.11-5.56-9.03-10.04-1.68-8.14-1.91-17.17-1.91-17.17,0,0-2.37-18.84,15.78-18.59,18.14.25,17.86,18.42,17.86,18.42Z"/>
            <g>
              <path class="cls-6" d="m50.69,32.56c0,.81-.66,1.47-1.47,1.47s-1.47-.66-1.47-1.47.66-1.47,1.47-1.47,1.47.66,1.47,1.47Z"/>
              <path class="cls-6" d="m65.1,32.56c0,.81-.66,1.47-1.47,1.47s-1.47-.66-1.47-1.47.66-1.47,1.47-1.47,1.47.66,1.47,1.47Z"/>
              <polyline class="cls-1" points="55.09 36.41 55.09 38.76 57 38.76"/>
              <path d="m43.75,26.36l9.59-.86s-.86-2.49-4.74-2.08c-3.97.41-4.86,2.95-4.86,2.95Z"/>
              <path d="m68.48,26.36l-9.59-.86s.86-2.49,4.74-2.08c3.97.41,4.86,2.95,4.86,2.95Z"/>
              <path class="cls-3" d="m51.81,42.11h9.46s-.44,2.9-4.87,2.9-4.59-2.9-4.59-2.9Z"/>
            </g>
            <g>
              <path class="cls-6" d="m40.84,36.12s.71-23.07.42-23.73c0,0-8.18,7.56-.42,23.73Z"/>
              <path class="cls-6" d="m73.18,35.96l-1.23-25.05s7.87,7.82,1.23,25.05Z"/>
            </g>
            <path class="cls-6" d="m48.44,10.35s-5.63,1.52-5.44,7.05c.19,5.53-3.55,10.96-3.55,10.96l-1.71-5.52s-1.32-10.29,10.69-12.49Z"/>
            <path class="cls-6" d="m47.02,10.81s4.21-2.39,8.4,2.87c3.57,4.49,12.99,9.12,18.57,4.72,0,0-3.55-12.72-17.42-12.46-13.86.26-9.56,4.87-9.56,4.87Z"/>
          </g>
          <g>
            <path class="cls-8" d="m104.38,114.67H8.98c1.74-7.22,3.53-13.64,5.3-18.64,2.62-7.38,6.39-11.7,9.51-14.16,3.11-2.47,5.57-3.09,5.57-3.09l6.62-2.77,41.88.04,6.14,2.73s9.84,2.48,15.08,17.25c1.77,5,3.56,11.42,5.3,18.64Z"/>
            <g>
              <path class="cls-7" d="m57.43,67.19l20.44,8.86s-21,18.98-41.88-.04l21.44-8.82Z"/>
              <path class="cls-2" d="m35.98,76.01s7.28,8.61,20.89,8.61,20.99-8.57,20.99-8.57"/>
            </g>
          </g>
        </g>
      </g>
    </g>
  </g>
</svg>